# xmcd CD database file
#
# Track frame offsets:
#	150
#	20985
#	41507
#
# Disc length: 828 seconds
#
# Revision: 0
# Processed by: cddbd v1.5.1PL2 Copyright (c) Steve Scherf et al.
# Submitted via: CDex 1.51
#
DISCID=21033a03
DTITLE=滴草由実 - 君の涙を無駄にしたくない
DYEAR=2006
DGENRE=J ポップ
TTITLE0=君の涙を無駄にしたくない
TTITLE1=「証」
TTITLE2=君の涙を無駄にしたくない (Instrumental)
EXTD=YEAR: 2006
EXTT0=
EXTT1=
EXTT2=
PLAYORDER=
